<svg xmlns="http://www.w3.org/2000/svg" width="45.792" height="45.877" viewBox="0 0 45.792 45.877">
  <path id="Icon_feather-phone" data-name="Icon feather-phone" d="M45.955,35.1v6.454a4.3,4.3,0,0,1-4.69,4.3,42.576,42.576,0,0,1-18.567-6.6A41.952,41.952,0,0,1,9.79,26.343,42.576,42.576,0,0,1,3.185,7.69,4.3,4.3,0,0,1,7.467,3h6.454a4.3,4.3,0,0,1,4.3,3.7,27.624,27.624,0,0,0,1.506,6.045,4.3,4.3,0,0,1-.968,4.539l-2.732,2.732A34.422,34.422,0,0,0,28.938,32.926l2.732-2.732a4.3,4.3,0,0,1,4.539-.968,27.624,27.624,0,0,0,6.045,1.506A4.3,4.3,0,0,1,45.955,35.1Z" transform="translate(-1.666 -1.5)" fill="none" stroke="#000" stroke-linecap="round" stroke-linejoin="round" stroke-width="3"/>
</svg>
