<svg xmlns="http://www.w3.org/2000/svg" width="47.353" height="47.353" viewBox="0 0 47.353 47.353">
  <path id="Icon_awesome-whatsapp" data-name="Icon awesome-whatsapp" d="M40.261,9.131A23.473,23.473,0,0,0,3.33,37.448L0,49.6l12.441-3.266a23.394,23.394,0,0,0,11.215,2.854h.011A23.691,23.691,0,0,0,47.353,25.726,23.558,23.558,0,0,0,40.261,9.131ZM23.666,45.238a19.469,19.469,0,0,1-9.936-2.716l-.708-.423L5.644,44.033l1.966-7.2-.465-.74A19.541,19.541,0,1,1,43.389,25.726,19.721,19.721,0,0,1,23.666,45.238Zm10.7-14.608c-.581-.3-3.467-1.712-4.006-1.9s-.93-.3-1.321.3-1.511,1.9-1.86,2.3-.687.444-1.268.148C22.461,29.753,20.2,28.4,17.927,24.5c-.6-1.036.6-.962,1.723-3.2a1.087,1.087,0,0,0-.053-1.025c-.148-.3-1.321-3.182-1.807-4.355-.476-1.142-.962-.983-1.321-1-.338-.021-.729-.021-1.12-.021a2.172,2.172,0,0,0-1.564.729,6.588,6.588,0,0,0-2.051,4.894c0,2.886,2.1,5.676,2.389,6.067s4.133,6.31,10.02,8.858c3.721,1.607,5.179,1.744,7.04,1.469,1.131-.169,3.467-1.416,3.953-2.79a4.9,4.9,0,0,0,.338-2.79C35.335,31.064,34.944,30.916,34.363,30.63Z" transform="translate(0 -2.25)" fill="#0aa119"/>
</svg>
